<svg width="24" height="24" viewBox="0 0 24 24" fill="none" xmlns="http://www.w3.org/2000/svg">
<path d="M7.26866 18.8C6.1194 18.8 5.1791 19.745 5.1791 20.9C5.1791 22.055 6.1194 23 7.26866 23C8.41791 23 9.35821 22.055 9.35821 20.9C9.35821 19.745 8.41791 18.8 7.26866 18.8ZM17.7164 18.8C16.5672 18.8 15.6269 19.745 15.6269 20.9C15.6269 22.055 16.5672 23 17.7164 23C18.8657 23 19.806 22.055 19.806 20.9C19.806 19.745 18.8657 18.8 17.7164 18.8ZM7.47761 15.44V15.335L8.41791 13.55H16.1493C16.8806 13.55 17.6119 13.13 17.9254 12.5L22 5.15L20.2239 4.1L16.1493 11.45H8.83582L4.44776 2H1V4.1H3.08955L6.85075 12.08L5.38806 14.6C5.28358 14.915 5.1791 15.23 5.1791 15.65C5.1791 16.805 6.1194 17.75 7.26866 17.75H19.806V15.65H7.68657C7.58209 15.65 7.47761 15.545 7.47761 15.44Z" fill="black"/>
<path d="M13.0208 2C15.2191 2 17 3.8 17 6C17 8.2 15.2191 10 13.0208 10C11.6254 10 10.405 9.272 9.69346 8.172L10.3216 7.672C10.8821 8.588 11.8799 9.2 13.0247 9.2C13.8682 9.2 14.6771 8.86286 15.2735 8.26274C15.8699 7.66263 16.2049 6.84869 16.2049 6C16.2049 5.15131 15.8699 4.33737 15.2735 3.73726C14.6771 3.13714 13.8682 2.8 13.0247 2.8C11.4028 2.8 10.0671 4.024 9.87235 5.6H10.9695L9.48277 7.092L8 5.6H9.06935C9.26811 3.58 10.9616 2 13.0208 2Z" fill="black"/>
<g clip-path="url(#clip0_28_5)">
<path d="M14.3333 6.33329H13.3333V7.33329H12.6667V6.33329H11.6667V5.66663H12.6667V4.66663H13.3333V5.66663H14.3333V6.33329Z" fill="black"/>
</g>
<defs>
<clipPath id="clip0_28_5">
<rect width="4" height="4" fill="white" transform="translate(11 4)"/>
</clipPath>
</defs>
</svg>
