<svg width="24" height="24" viewBox="0 0 24 24" fill="none" xmlns="http://www.w3.org/2000/svg">
<path d="M7.26866 17.8C6.1194 17.8 5.1791 18.745 5.1791 19.9C5.1791 21.055 6.1194 22 7.26866 22C8.41791 22 9.35821 21.055 9.35821 19.9C9.35821 18.745 8.41791 17.8 7.26866 17.8ZM17.7164 17.8C16.5672 17.8 15.6269 18.745 15.6269 19.9C15.6269 21.055 16.5672 22 17.7164 22C18.8657 22 19.806 21.055 19.806 19.9C19.806 18.745 18.8657 17.8 17.7164 17.8ZM7.47761 14.44V14.335L8.41791 12.55H16.1493C16.8806 12.55 17.6119 12.13 17.9254 11.5L22 4.15L20.2239 3.1L16.1493 10.45H8.83582L4.44776 1H1V3.1H3.08955L6.85075 11.08L5.38806 13.6C5.28358 13.915 5.1791 14.23 5.1791 14.65C5.1791 15.805 6.1194 16.75 7.26866 16.75H19.806L17.9254 14.65H7.68657C7.58209 14.65 7.47761 14.545 7.47761 14.44Z" fill="black"/>
<path d="M16 6H13V9H11V6H8V4H11V1H13V4H16V6Z" fill="black"/>
<path d="M24 13V9L22.83 10.17C22.11 9.45 21.11 9 20 9C17.79 9 16 10.79 16 13C16 15.21 17.79 17 20 17C21.68 17 23.12 15.97 23.71 14.5H22C21.54 15.11 20.82 15.5 20 15.5C18.62 15.5 17.5 14.38 17.5 13C17.5 11.62 18.62 10.5 20 10.5C20.69 10.5 21.32 10.78 21.77 11.23L20 13H24Z" fill="white"/>
<path d="M23 13V10L22.1225 10.8775C21.5825 10.3375 20.8325 10 20 10C18.3425 10 17 11.3425 17 13C17 14.6575 18.3425 16 20 16C21.26 16 22.34 15.2275 22.7825 14.125H21.5C21.155 14.5825 20.615 14.875 20 14.875C18.965 14.875 18.125 14.035 18.125 13C18.125 11.965 18.965 11.125 20 11.125C20.5175 11.125 20.99 11.335 21.3275 11.6725L20 13H23Z" fill="black"/>
</svg>
