<svg width="24" height="24" viewBox="0 0 24 24" fill="none" xmlns="http://www.w3.org/2000/svg">
<g clip-path="url(#clip0_36_75)">
<rect width="24" height="24" fill="white"/>
<path d="M7.26866 17.8C6.1194 17.8 5.1791 18.745 5.1791 19.9C5.1791 21.055 6.1194 22 7.26866 22C8.41791 22 9.35821 21.055 9.35821 19.9C9.35821 18.745 8.41791 17.8 7.26866 17.8ZM7.47761 14.44V14.335L8.41791 12.55L16 12.5C16.5 11.5 17.5 10.5 18.5 10.5L22 4.15L20.2239 3.1L16.1493 10.45H8.83582L4.44776 1H1V3.1H3.08955L6.85075 11.08L5.38806 13.6C5.28358 13.915 5.1791 14.23 5.1791 14.65C5.1791 15.805 6.1194 16.75 7.26866 16.75H15V14.44L7.68657 14.65C7.58209 14.65 7.47761 14.545 7.47761 14.44Z" fill="black"/>
<path d="M15.5896 17.8C14.4403 17.8 13.5 18.745 13.5 19.9C13.5 21.055 14.4403 22 15.5896 22C16.7388 22 17.6791 21.055 17.6791 19.9C17.6791 18.745 16.7388 17.8 15.5896 17.8Z" fill="black"/>
<g style="mix-blend-mode:lighten">
<path d="M25.5 14.4999C26.6983 16.5753 25.9735 12.4315 25.5 14.4999C23.1143 10.3677 20.5 6.99982 16 7.99983C11 9.4999 10.5 14.5 14 18C14 16.5 15.1642 17.2901 14 18L15.0459 17.6665L16 17.5C14.5 18 14.4437 17.2517 16 17.5C14.5103 14.9197 15.9482 12.9362 18.3455 11.5521C20.7429 10.168 23.0103 11.4196 24.5 13.9998C24.796 12.7071 25.2449 15.29 24.5 13.9998L25.5 14.4999Z" fill="white"/>
</g>
<path d="M17 16.2C15.236 16.2 13.8 14.764 13.8 13C13.8 11.236 15.236 9.88889 17 9.88889C18.764 9.88889 20.2 11.236 20.2 13C20.2 14.764 18.764 16.2 17 16.2ZM17 9C16.4747 9 15.9546 9.10346 15.4693 9.30448C14.984 9.5055 14.543 9.80014 14.1716 10.1716C13.4214 10.9217 13 11.9391 13 13C13 14.0609 13.4214 15.0783 14.1716 15.8284C14.543 16.1999 14.984 16.4945 15.4693 16.6955C15.9546 16.8965 16.4747 17 17 17C18.0609 17 19.0783 16.5786 19.8284 15.8284C20.5786 15.0783 21 14.0609 21 13C21 12.4747 20.8965 11.9546 20.6955 11.4693C20.4945 10.984 20.1999 10.543 19.8284 10.1716C19.457 9.80014 19.016 9.5055 18.5307 9.30448C18.0454 9.10346 17.5253 9 17 9ZM17.4 11H16.6V12.6H15V13.4H16.6V15H17.4V13.4H19V12.6H17.4V11Z" fill="black"/>
</g>
<defs>
<clipPath id="clip0_36_75">
<rect width="24" height="24" fill="white"/>
</clipPath>
</defs>
</svg>
